<svg width="32" height="32" viewBox="0 0 32 32" fill="none" xmlns="http://www.w3.org/2000/svg">
<path d="M0 10C0 4.47715 4.47715 0 10 0H21.9965C27.5194 0 31.9965 4.47715 31.9965 10V21.9965C31.9965 27.5194 27.5194 31.9965 21.9965 31.9965H10C4.47715 31.9965 0 27.5194 0 21.9965V10Z" fill="url(#paint0_linear_149_2)"/>
<g clip-path="url(#clip0_149_2)">
<path d="M15.9983 20.9982V10.1649" stroke="white" stroke-width="1.66667" stroke-linecap="round" stroke-linejoin="round"/>
<path d="M18.4983 16.8316C17.7773 16.6208 17.144 16.1821 16.6933 15.5812C16.2426 14.9802 15.9987 14.2494 15.9983 13.4983C15.9978 14.2494 15.754 14.9802 15.3033 15.5812C14.8526 16.1821 14.2193 16.6208 13.4983 16.8316" stroke="white" stroke-width="1.66667" stroke-linecap="round" stroke-linejoin="round"/>
<path d="M20.6633 11.4149C20.855 11.0828 20.9678 10.7111 20.9929 10.3284C21.018 9.94577 20.9548 9.56247 20.808 9.20818C20.6613 8.85389 20.435 8.5381 20.1467 8.28525C19.8584 8.0324 19.5158 7.84927 19.1453 7.75001C18.7749 7.65076 18.3867 7.63805 18.0105 7.71287C17.6344 7.78768 17.2806 7.94802 16.9763 8.18147C16.6721 8.41493 16.4257 8.71524 16.2561 9.05918C16.0865 9.40311 15.9983 9.78146 15.9983 10.1649C15.9983 9.78146 15.9101 9.40311 15.7405 9.05918C15.5709 8.71524 15.3245 8.41493 15.0202 8.18147C14.716 7.94802 14.3621 7.78768 13.986 7.71287C13.6099 7.63805 13.2216 7.65076 12.8512 7.75001C12.4808 7.84927 12.1382 8.0324 11.8499 8.28525C11.5616 8.5381 11.3353 8.85389 11.1886 9.20818C11.0418 9.56247 10.9786 9.94577 11.0037 10.3284C11.0287 10.7111 11.1415 11.0828 11.3333 11.4149" stroke="white" stroke-width="1.66667" stroke-linecap="round" stroke-linejoin="round"/>
<path d="M20.9957 10.2691C21.4856 10.3951 21.9403 10.6308 22.3255 10.9585C22.7108 11.2862 23.0164 11.6973 23.2192 12.1606C23.422 12.624 23.5168 13.1273 23.4962 13.6327C23.4757 14.138 23.3405 14.6321 23.1007 15.0774" stroke="white" stroke-width="1.66667" stroke-linecap="round" stroke-linejoin="round"/>
<path d="M20.9983 20.9983C21.732 20.9982 22.4453 20.7561 23.0274 20.3094C23.6095 19.8627 24.028 19.2364 24.2179 18.5277C24.4078 17.8189 24.3586 17.0673 24.0778 16.3894C23.797 15.7115 23.3004 15.1452 22.665 14.7783" stroke="white" stroke-width="1.66667" stroke-linecap="round" stroke-linejoin="round"/>
<path d="M22.6375 20.5674C22.6959 21.0193 22.661 21.4783 22.5351 21.9162C22.4091 22.354 22.1947 22.7614 21.9052 23.1132C21.6156 23.465 21.257 23.7536 20.8515 23.9614C20.446 24.1691 20.0022 24.2915 19.5475 24.321C19.0928 24.3505 18.637 24.2865 18.208 24.1329C17.7791 23.9793 17.3861 23.7394 17.0535 23.428C16.7209 23.1167 16.4557 22.7404 16.2742 22.3225C16.0927 21.9046 15.9988 21.4539 15.9983 20.9982C15.9978 21.4539 15.904 21.9046 15.7225 22.3225C15.541 22.7404 15.2757 23.1167 14.9431 23.428C14.6105 23.7394 14.2176 23.9793 13.7887 24.1329C13.3597 24.2865 12.9038 24.3505 12.4491 24.321C11.9945 24.2915 11.5507 24.1691 11.1452 23.9614C10.7397 23.7536 10.3811 23.465 10.0915 23.1132C9.80191 22.7614 9.58753 22.354 9.46157 21.9162C9.33561 21.4783 9.30076 21.0193 9.35916 20.5674" stroke="white" stroke-width="1.66667" stroke-linecap="round" stroke-linejoin="round"/>
<path d="M10.9983 20.9983C10.2646 20.9982 9.55135 20.7561 8.96924 20.3094C8.38712 19.8627 7.96866 19.2364 7.77875 18.5277C7.58883 17.8189 7.63809 17.0673 7.91886 16.3894C8.19964 15.7115 8.69625 15.1452 9.33168 14.7783" stroke="white" stroke-width="1.66667" stroke-linecap="round" stroke-linejoin="round"/>
<path d="M11.0008 10.2691C10.511 10.3951 10.0562 10.6308 9.67101 10.9585C9.28578 11.2862 8.98018 11.6973 8.77735 12.1606C8.57452 12.624 8.47978 13.1273 8.5003 13.6327C8.52083 14.138 8.65608 14.6321 8.89581 15.0774" stroke="white" stroke-width="1.66667" stroke-linecap="round" stroke-linejoin="round"/>
</g>
<defs>
<linearGradient id="paint0_linear_149_2" x1="0" y1="0" x2="31.9965" y2="31.9965" gradientUnits="userSpaceOnUse">
<stop stop-color="#155DFC"/>
<stop offset="1" stop-color="#9810FA"/>
</linearGradient>
<clipPath id="clip0_149_2">
<rect width="20" height="20" fill="white" transform="translate(5.99829 5.99826)"/>
</clipPath>
</defs>
</svg>
